<svg width="24" height="22" viewBox="0 0 24 22" fill="none" xmlns="http://www.w3.org/2000/svg">
<path d="M21.2803 12.1507C21.2803 6.90401 17.027 2.65072 11.7803 2.65072C6.53363 2.65072 2.28033 6.90401 2.28033 12.1507" stroke="#417187"/>
<rect x="0.780334" y="12.1507" width="3" height="3" rx="0.5" stroke="#417187"/>
<rect x="9.78033" y="1.15072" width="3" height="3" rx="0.5" fill="#F8F2DB" stroke="#417187"/>
<rect x="19.7803" y="12.1507" width="3" height="3" rx="0.5" stroke="#417187"/>
<path d="M11.0412 7.4419V12C11.0412 12.2761 11.2651 12.5 11.5412 12.5C11.8173 12.5 12.0412 12.2761 12.0412 12V7.44179C12.1761 7.55508 12.3245 7.6986 12.4845 7.87113C12.9556 8.37928 13.4766 9.08355 13.9882 9.8471C14.923 11.2422 15.7901 12.78 16.2156 13.5447L14.579 16.8412H8.50179L6.84749 13.5469C6.85998 13.525 6.87282 13.5024 6.88601 13.4793C7.3307 12.6985 8.16354 11.2361 9.06204 9.89302C9.57928 9.11984 10.1068 8.40382 10.5841 7.88627C10.7492 7.7072 10.9023 7.55859 11.0412 7.4419ZM8.69338 17.8412H14.389V20.2687C14.3834 20.2718 14.3773 20.2751 14.3706 20.2786C14.2486 20.342 14.0401 20.4102 13.7437 20.4702C13.1599 20.5883 12.3589 20.6507 11.5412 20.6507C10.7236 20.6507 9.92247 20.5883 9.33871 20.4702C9.0423 20.4102 8.83384 20.342 8.71182 20.2786C8.70516 20.2751 8.69902 20.2718 8.69338 20.2687V17.8412ZM8.63662 20.2307C8.63709 20.2306 8.64051 20.2332 8.64545 20.2387C8.63862 20.2335 8.63615 20.2308 8.63662 20.2307ZM14.4458 20.2307C14.4463 20.2308 14.4438 20.2335 14.437 20.2387C14.4419 20.2332 14.4453 20.2306 14.4458 20.2307Z" stroke="#417187" stroke-linecap="round" stroke-linejoin="round"/>
</svg>
